# Blender v2.82 (sub 7) OBJ File: 'door-wall.blend'
# www.blender.org
mtllib door-wall.mtl
o Cube
v 0.000145 1.535374 -3.361084
v -0.000016 1.535374 -3.268713
v 0.000145 0.122099 -3.361086
v -0.000016 0.122099 -3.268715
v -0.635060 1.269271 -3.330442
v 0.007370 1.535374 -3.330442
v -0.340310 1.466217 -3.330442
v -0.748049 0.122086 -3.330441
v -0.901164 0.626841 -3.330441
v -0.883707 0.449595 -3.330441
v -0.832006 0.279160 -3.330441
v -0.497384 1.382259 -3.330442
v -0.169875 1.517917 -3.330442
v -0.832006 0.974522 -3.330442
v -0.748048 1.131595 -3.330442
v -0.883707 0.804087 -3.330441
v 0.007370 0.122099 -3.330441
v -0.756445 0.137794 -3.330441
v -1.344415 0.074307 -3.251970
v -1.344415 2.778003 -3.251970
v -1.344415 0.074307 -3.373798
v -1.344415 2.778003 -3.373798
v 1.359280 0.074307 -3.251970
v 1.359280 2.778003 -3.251970
v 1.359280 0.074307 -3.373798
v 1.359280 2.778003 -3.373798
v -0.832006 0.974522 -3.373798
v -0.856273 0.894525 -3.373798
v -0.787455 1.057871 -3.373798
v -0.748048 1.131595 -3.373798
v -0.635060 1.269271 -3.373798
v -0.688093 1.204651 -3.373798
v -0.562004 1.329227 -3.373798
v -0.414035 1.426810 -3.373798
v -0.497384 1.382259 -3.373798
v -0.340310 1.466217 -3.373798
v -0.169875 1.517917 -3.373798
v -0.249872 1.493651 -3.373798
v 0.007370 1.535374 -3.373798
v -0.075823 1.527180 -3.373798
v -0.883707 0.804087 -3.373798
v -0.891901 0.720892 -3.373798
v -0.901164 0.626841 -3.373798
v -0.892970 0.543646 -3.373798
v -0.883707 0.449595 -3.373798
v -0.859440 0.369596 -3.373798
v -0.832006 0.279160 -3.373798
v -0.796539 0.212805 -3.373798
v -0.748049 0.122086 -3.373798
v -0.393469 0.122092 -3.373798
v -0.756445 0.137794 -3.373798
v -0.751990 0.129459 -3.373798
v 0.007370 0.122099 -3.373798
v -0.760681 1.107961 -3.251970
v -0.832006 0.974522 -3.251970
v -0.748048 1.131595 -3.251970
v -0.839785 0.948877 -3.251970
v -0.652061 1.248556 -3.251970
v -0.635060 1.269271 -3.251970
v -0.497384 1.382259 -3.251970
v -0.518100 1.365258 -3.251970
v -0.340310 1.466217 -3.251970
v -0.363945 1.453584 -3.251970
v -0.195520 1.510138 -3.251970
v -0.169875 1.517917 -3.251970
v 0.007370 1.535374 -3.251970
v -0.019300 1.532748 -3.251970
v -0.883707 0.804087 -3.251970
v -0.886334 0.777416 -3.251970
v -0.901164 0.626841 -3.251970
v -0.898537 0.600170 -3.251970
v -0.883707 0.449595 -3.251970
v -0.875927 0.423948 -3.251970
v -0.832006 0.279160 -3.251970
v -0.820636 0.257887 -3.251970
v -0.748049 0.122086 -3.251970
v -0.749312 0.124450 -3.251970
v -0.634371 0.122088 -3.251970
v -0.756445 0.137794 -3.251970
v 0.007370 0.122099 -3.251970
v 0.105634 0.122097 -3.373798
v 0.007370 0.122099 -3.361956
v 0.000167 0.122099 -3.373798
v 0.152506 1.520370 -3.373798
v 0.177412 1.517917 -3.373798
v 0.000167 1.535374 -3.373798
v 0.000167 1.534665 -3.373798
v 0.000145 1.534663 -3.361084
v 0.007370 1.534663 -3.361072
v 0.007370 1.534665 -3.373798
v 0.106102 1.524940 -3.373798
v 0.003768 1.535020 -3.373798
v 0.003757 1.535018 -3.361078
v 0.323348 1.473648 -3.373798
v 0.347847 1.466217 -3.373798
v 0.481872 1.394579 -3.373798
v 0.504921 1.382259 -3.373798
v 0.622030 1.286151 -3.373798
v 0.642597 1.269271 -3.373798
v 0.738458 1.152466 -3.373798
v 0.755586 1.131595 -3.373798
v 0.755587 0.122086 -3.373798
v 0.007370 0.122099 -3.361073
v 0.756862 0.124472 -3.373798
v 0.826677 0.998594 -3.373798
v 0.839544 0.974522 -3.373798
v 0.763982 0.137794 -3.373798
v 0.775488 0.159320 -3.373798
v 0.839544 0.279160 -3.373798
v 0.847487 0.305345 -3.373798
v 0.883266 0.830388 -3.373798
v 0.891245 0.804087 -3.373798
v 0.893943 0.476983 -3.373798
v 0.891245 0.449595 -3.373798
v 0.906001 0.654269 -3.373798
v 0.908702 0.626841 -3.373798
v 0.000093 0.122099 -3.331228
v 0.000091 0.122099 -3.330441
v 0.000090 0.122099 -3.329550
v 0.007370 0.122099 -3.269605
v 0.000144 1.534663 -3.360583
v 0.007370 1.534662 -3.357303
v 0.003756 1.535018 -3.359195
v 0.000098 1.534658 -3.334232
v 0.000091 1.534657 -3.330442
v -0.000016 1.534647 -3.268713
v 0.007370 1.534657 -3.330946
v 0.003732 1.535016 -3.332338
v 0.003731 1.535016 -3.330442
v 0.007370 1.534657 -3.330442
v 0.003677 1.535011 -3.268707
v 0.007370 1.534647 -3.268700
v 0.007370 0.122099 -3.268702
v -0.000046 0.122099 -3.251970
v 0.627389 0.122088 -3.251970
v -0.000017 1.534647 -3.268201
v -0.000046 1.534644 -3.251970
v -0.000046 1.535374 -3.251970
v 0.003675 1.535010 -3.266781
v 0.007370 1.534646 -3.264848
v 0.031975 1.532220 -3.251970
v 0.177199 1.517917 -3.251970
v 0.003662 1.535009 -3.251970
v 0.007370 1.534644 -3.251970
v 0.207425 1.508749 -3.251970
v 0.347634 1.466217 -3.251970
v 0.374993 1.451593 -3.251970
v 0.504708 1.382259 -3.251970
v 0.528290 1.362907 -3.251970
v 0.642385 1.269271 -3.251970
v 0.661453 1.246037 -3.251970
v 0.755373 1.131595 -3.251970
v 0.755374 0.122086 -3.251970
v 0.756776 0.124709 -3.251970
v 0.763770 0.137793 -3.251970
v 0.769371 1.105407 -3.251970
v 0.839331 0.974522 -3.251970
v 0.826815 0.255742 -3.251970
v 0.882523 0.421542 -3.251970
v 0.839332 0.279160 -3.251970
v 0.847874 0.946359 -3.251970
v 0.891032 0.804087 -3.251970
v 0.905624 0.597745 -3.251970
v 0.899363 0.534181 -3.251970
v 0.891032 0.449595 -3.251970
v 0.893902 0.774952 -3.251970
v 0.908490 0.626841 -3.251970
v 0.000167 0.122099 -3.373798
v 0.000090 0.122099 -3.329550
v -0.000046 0.122099 -3.251970
vt 0.375000 0.000000
vt 0.625000 0.000000
vt 0.625000 0.250000
vt 0.375000 0.250000
vt 0.426091 0.290986
vt 0.418398 0.291743
vt 0.409701 0.292600
vt 0.402304 0.294844
vt 0.393942 0.297380
vt 0.387806 0.300660
vt 0.380870 0.304367
vt 0.380100 0.304779
vt 0.379418 0.305144
vt 0.379418 0.337930
vt 0.379419 0.374328
vt 0.379419 0.374994
vt 0.379419 0.384080
vt 0.379418 0.444179
vt 0.379639 0.444284
vt 0.380870 0.444955
vt 0.382861 0.446019
vt 0.393942 0.451942
vt 0.396363 0.452676
vt 0.409701 0.456723
vt 0.412233 0.456971
vt 0.426090 0.458337
vt 0.428627 0.458087
vt 0.442481 0.456724
vt 0.444912 0.455985
vt 0.458238 0.451941
vt 0.460465 0.450752
vt 0.472764 0.444180
vt 0.474694 0.442596
vt 0.485494 0.433731
vt 0.487053 0.431829
vt 0.495941 0.421001
vt 0.497077 0.418868
vt 0.503702 0.406476
vt 0.504388 0.404211
vt 0.508484 0.390717
vt 0.508713 0.388415
vt 0.509134 0.384124
vt 0.625000 0.500000
vt 0.375000 0.500000
vt 0.625000 0.750000
vt 0.375000 0.750000
vt 0.417523 0.792527
vt 0.409701 0.793297
vt 0.407107 0.794084
vt 0.393942 0.798078
vt 0.391776 0.799235
vt 0.380870 0.805064
vt 0.379660 0.805711
vt 0.379418 0.805840
vt 0.379418 0.817675
vt 0.379419 0.875006
vt 0.379419 0.875692
vt 0.379418 0.934345
vt 0.379418 0.944856
vt 0.379637 0.944973
vt 0.380870 0.945633
vt 0.391975 0.951568
vt 0.393942 0.952620
vt 0.407330 0.956681
vt 0.409701 0.957400
vt 0.423624 0.958771
vt 0.426091 0.959014
vt 0.375000 1.000000
vt 0.125000 0.500000
vt 0.125000 0.750000
vt 0.875000 0.500000
vt 0.875000 0.750000
vt 0.440014 0.957643
vt 0.442480 0.957400
vt 0.455868 0.953339
vt 0.458239 0.952619
vt 0.470578 0.946024
vt 0.472763 0.944856
vt 0.483578 0.935981
vt 0.485494 0.934409
vt 0.494369 0.923594
vt 0.495941 0.921678
vt 0.502536 0.909340
vt 0.503704 0.907154
vt 0.507766 0.893766
vt 0.508485 0.891395
vt 0.509856 0.877472
vt 0.510032 0.875691
vt 0.510099 0.875692
vt 0.510065 0.875349
vt 0.510099 0.875006
vt 0.510032 0.875006
vt 0.509807 0.872731
vt 0.508485 0.859302
vt 0.507637 0.856508
vt 0.503704 0.843544
vt 0.502352 0.841012
vt 0.495942 0.829020
vt 0.494151 0.826836
vt 0.485493 0.816287
vt 0.483345 0.814525
vt 0.472763 0.805841
vt 0.470341 0.804545
vt 0.458238 0.798076
vt 0.455636 0.797289
vt 0.442480 0.793298
vt 0.439785 0.793031
vt 0.426090 0.791683
vt 0.423400 0.791948
vt 0.625000 1.000000
vt 0.510033 0.374994
vt 0.510099 0.374994
vt 0.510066 0.374661
vt 0.510099 0.374328
vt 0.510033 0.374328
vt 0.509341 0.367302
vt 0.508485 0.358605
vt 0.506241 0.351208
vt 0.503704 0.342846
vt 0.500061 0.336029
vt 0.495941 0.328322
vt 0.491037 0.322346
vt 0.485494 0.315591
vt 0.479518 0.310688
vt 0.472763 0.305144
vt 0.465946 0.301500
vt 0.458239 0.297381
vt 0.450842 0.295137
vt 0.442480 0.292600
vt 0.434787 0.291842
vt 0.867371 0.649980
vt 0.867413 0.649646
vt 0.867371 0.649646
vt 0.953202 0.232978
vt 0.953041 0.231283
vt 0.951803 0.231277
vt 0.951802 0.232978
vt 0.960928 0.232978
vt 0.960770 0.231320
vt 0.958524 0.231309
vt 0.958366 0.231308
vt 0.953202 0.231283
vt 0.859649 0.649980
vt 0.859691 0.649653
vt 0.859649 0.649653
vt 0.858586 0.649654
vt 0.858586 0.649980
vt 0.862211 0.649651
vt 0.861894 0.649651
vt 0.890836 0.073393
vt 0.887210 0.042937
vt 0.887210 0.073393
vt 0.953202 0.073401
vt 0.949576 0.039559
vt 0.949576 0.073401
vt 0.890836 0.232975
vt 0.887210 0.194789
vt 0.887210 0.232975
vt 0.890836 0.314329
vt 0.887210 0.276143
vt 0.887210 0.314329
vt 0.867371 0.649980
vt 0.867413 0.649651
vt 0.867371 0.649651
vt 0.890836 0.464654
vt 0.887210 0.430815
vt 0.887210 0.464654
vt 0.890836 0.392559
vt 0.887210 0.355840
vt 0.887210 0.392560
vt 0.953202 0.232978
vt 0.953044 0.231309
vt 0.950798 0.231320
vt 0.950640 0.231320
vt 0.949576 0.231325
vt 0.949576 0.232978
vt 0.890836 0.579705
vt 0.887210 0.555363
vt 0.887210 0.579705
vt 0.953202 0.151628
vt 0.949576 0.114911
vt 0.949576 0.151628
vt 0.890836 0.527844
vt 0.887210 0.498184
vt 0.887210 0.527844
vt 0.890836 0.151620
vt 0.887210 0.114902
vt 0.887210 0.151620
vt 0.929737 0.001299
vt 0.933363 0.164050
vt 0.933363 0.001299
vt 0.976664 0.001297
vt 0.980047 0.004923
vt 0.983871 0.004923
vt 0.983871 0.001297
vt 0.890836 0.008506
vt 0.887210 0.008506
vt 0.953202 0.001299
vt 0.949576 0.001299
vt 0.949576 0.194795
vt 0.952886 0.229641
vt 0.953202 0.229638
vt 0.890836 0.001297
vt 0.897399 0.002382
vt 0.897399 0.001297
vt 0.862210 0.649646
vt 0.861888 0.649646
vt 0.860811 0.649645
vt 0.860811 0.649980
vt 0.897399 0.453806
vt 0.897399 0.464654
vt 0.897399 0.314329
vt 0.897399 0.380788
vt 0.959765 0.073401
vt 0.959765 0.139857
vt 0.897399 0.008506
vt 0.959765 0.001299
vt 0.959765 0.062552
vt 0.897399 0.527844
vt 0.897399 0.571901
vt 0.976664 0.004923
vt 0.897399 0.518336
vt 0.923177 0.348033
vt 0.924577 0.344643
vt 0.929737 0.348033
vt 0.929662 0.344692
vt 0.923177 0.053477
vt 0.923177 0.344629
vt 0.897399 0.392559
vt 0.897399 0.073393
vt 0.897399 0.139849
vt 0.959765 0.151628
vt 0.959765 0.220738
vt 0.929662 0.344692
vt 0.929737 0.344692
vt 0.923177 0.001299
vt 0.897399 0.302087
vt 0.958365 0.229588
vt 0.958408 0.229588
vt 0.959765 0.229575
vt 0.897399 0.220733
vt 0.897399 0.232975
vt 0.897399 0.063629
vt 0.897399 0.151620
vt 0.897399 0.579705
vt 0.949577 0.229672
vt 0.950640 0.229662
vt 0.950682 0.229662
vt 0.933363 0.348033
vt 0.933363 0.344727
vt 0.929803 0.344693
vt 0.932300 0.344717
vt 0.924576 0.344692
vt 0.929737 0.348033
vt 0.929661 0.344644
vt 0.960928 0.231320
vt 0.961990 0.232978
vt 0.961990 0.231325
vt 0.870996 0.649654
vt 0.869932 0.649653
vt 0.869616 0.649653
vt 0.870996 0.649980
vt 0.953202 0.231308
vt 0.929737 0.344643
vt 0.922015 0.348033
vt 0.921942 0.344718
vt 0.920952 0.344727
vt 0.959765 0.231277
vt 0.958526 0.231283
vt 0.958366 0.231283
vt 0.959765 0.232978
vt 0.922015 0.344717
vt 0.868771 0.649980
vt 0.868771 0.649645
vn -1.0000 0.0000 0.0000
vn 0.0000 0.0000 -1.0000
vn 1.0000 0.0000 0.0000
vn -0.0000 -0.0000 1.0000
vn 0.0000 -1.0000 0.0000
vn 0.0000 1.0000 0.0000
vn 0.6715 -0.7409 0.0011
vn 0.7410 -0.6715 0.0012
vn 0.7409 -0.6716 0.0012
vn 0.0000 -1.0000 -0.0001
vn -0.0000 -0.7279 0.6857
vn 0.5506 -0.6068 0.5732
vn 0.6715 -0.7409 0.0012
vn 0.6027 -0.5456 -0.5822
vn 0.5507 -0.6084 -0.5715
vn 0.7409 -0.6715 0.0012
vn 0.9239 0.3827 0.0000
vn 0.6236 0.3333 -0.7071
vn 0.6725 0.2785 -0.6857
vn 0.3827 -0.9239 0.0000
vn 0.3333 -0.6236 -0.7071
vn 0.2785 -0.6725 -0.6857
vn 0.7037 0.0693 -0.7071
vn 0.6836 0.0000 -0.7298
vn 0.9808 -0.1951 0.0000
vn 0.7037 -0.0693 -0.7071
vn 0.7139 -0.1420 -0.6857
vn -0.6715 -0.7409 0.0000
vn 0.8314 -0.5556 0.0000
vn 0.6236 -0.3333 -0.7071
vn 0.6052 -0.4044 -0.6857
vn 0.9239 -0.3827 0.0000
vn 0.6767 -0.2052 -0.7071
vn 0.6725 -0.2785 -0.6857
vn 0.0000 -0.7278 -0.6857
vn -0.5507 -0.6076 -0.5723
vn 0.5556 -0.8314 0.0000
vn 0.4486 -0.5466 -0.7071
vn 0.4044 -0.6052 -0.6857
vn 0.1951 -0.9808 0.0000
vn 0.2053 -0.6767 -0.7071
vn 0.1420 -0.7139 -0.6857
vn 0.7071 -0.7071 0.0000
vn 0.5466 -0.4486 -0.7071
vn 0.5147 -0.5147 -0.6857
vn 0.9808 0.1951 0.0000
vn 0.6767 0.2052 -0.7071
vn 0.7139 0.1420 -0.6857
vn 0.5141 0.8577 0.0000
vn 0.0000 0.7071 -0.7071
vn 0.4083 0.6812 -0.6076
vn 0.8819 0.4714 0.0000
vn 0.0693 -0.7037 -0.7071
vn 0.6236 0.3333 0.7071
vn 0.4083 0.6812 0.6076
vn -0.6853 0.0000 0.7282
vn -0.5507 -0.6076 0.5723
vn 0.6236 -0.3333 0.7071
vn 0.6052 -0.4044 0.6857
vn 0.7139 -0.1420 0.6857
vn 0.6767 -0.2052 0.7071
vn 0.2785 -0.6725 0.6857
vn 0.2052 -0.6767 0.7071
vn 0.4044 -0.6052 0.6857
vn 0.3333 -0.6236 0.7071
vn 0.5147 -0.5147 0.6857
vn 0.4486 -0.5466 0.7071
vn 0.5466 -0.4486 0.7071
vn 0.0000 0.3451 0.9385
vn 0.0000 0.7071 0.7070
vn 0.0000 0.7071 0.7071
vn 0.6725 -0.2785 0.6857
vn 0.6725 0.2785 0.6857
vn 0.6767 0.2052 0.7071
vn 0.1420 -0.7139 0.6857
vn 0.0693 -0.7037 0.7071
vn 0.7037 -0.0693 0.7071
vn 0.6016 -0.5459 0.5831
vn 0.7037 0.0693 0.7071
vn 0.6836 0.0000 0.7298
vn 0.7139 0.1420 0.6857
vn 0.0000 0.4472 -0.8944
vn -0.6854 0.0000 -0.7281
usemtl Material.004
s off
f 19/1/1 20/2/1 22/3/1 21/4/1
f 21/4/2 43/5/2 44/6/2 45/7/2 46/8/2 47/9/2 48/10/2 51/11/2 52/12/2 49/13/2 50/14/2 168/15/2 53/16/2 81/17/2 102/18/2 104/19/2 107/20/2 108/21/2 109/22/2 110/23/2 114/24/2 113/25/2 116/26/2 115/27/2 112/28/2 111/29/2 106/30/2 105/31/2 101/32/2 100/33/2 99/34/2 98/35/2 97/36/2 96/37/2 95/38/2 94/39/2 85/40/2 84/41/2 91/42/2 26/43/2 25/44/2
f 25/44/3 26/43/3 24/45/3 23/46/3
f 23/46/4 164/47/4 165/48/4 159/49/4 160/50/4 158/51/4 155/52/4 154/53/4 153/54/4 135/55/4 80/56/4 170/57/4 78/58/4 76/59/4 77/60/4 79/61/4 75/62/4 74/63/4 73/64/4 72/65/4 71/66/4 70/67/4 19/68/4
f 21/69/5 25/44/5 23/46/5 19/70/5
f 26/43/6 22/71/6 20/72/6 24/45/6
f 19/68/4 70/67/4 69/73/4 68/74/4 57/75/4 55/76/4 54/77/4 56/78/4 58/79/4 59/80/4 61/81/4 60/82/4 63/83/4 62/84/4 64/85/4 65/86/4 67/87/4 137/88/4 138/89/4 143/90/4 66/91/4 144/92/4 141/93/4 142/94/4 145/95/4 146/96/4 147/97/4 148/98/4 149/99/4 150/100/4 151/101/4 152/102/4 156/103/4 157/104/4 161/105/4 162/106/4 166/107/4 167/108/4 163/109/4 164/47/4 23/46/4 24/45/4 20/110/4
f 26/43/2 91/42/2 90/111/2 39/112/2 92/113/2 86/114/2 87/115/2 40/116/2 37/117/2 38/118/2 36/119/2 34/120/2 35/121/2 33/122/2 31/123/2 32/124/2 30/125/2 29/126/2 27/127/2 28/128/2 41/129/2 42/130/2 43/5/2 21/4/2 22/3/2
s 1
f 2/131/7 136/132/8 126/133/9
f 2/134/7 139/135/10 143/136/11 138/137/12
f 1/138/13 123/139/10 128/140/10 129/141/10 131/142/10 2/134/7
f 1/143/13 121/144/8 88/145/9
f 1/143/13 88/145/9 87/146/14 86/147/15
f 2/131/7 126/133/9 125/148/16 124/149/9 121/144/8 1/143/13
f 11/150/17 48/151/18 47/152/19
f 7/153/20 34/154/21 36/155/22
f 9/156/3 44/157/23 43/158/24
f 16/159/25 42/160/26 41/161/27
f 6/162/28 127/163/1 130/164/1
f 15/165/29 29/166/30 30/167/31
f 14/168/32 28/169/33 27/170/34
f 6/171/28 128/172/10 123/173/10 93/174/10 92/175/35 39/176/36
f 12/177/37 33/178/38 35/179/39
f 13/180/40 38/181/41 37/182/42
f 5/183/43 32/184/44 31/185/45
f 10/186/46 46/187/47 45/188/48
f 8/189/49 50/190/50 49/191/51
f 8/192/49 52/193/18 51/194/18 18/195/52
f 18/196/52 51/197/18 48/151/18 11/150/17
f 12/198/37 35/199/39 34/154/21 7/153/20
f 10/186/46 45/188/48 44/157/23 9/156/3
f 9/156/3 43/158/24 42/160/26 16/159/25
f 14/168/32 27/170/34 29/166/30 15/165/29
f 16/159/25 41/161/27 28/169/33 14/168/32
f 13/180/40 37/182/42 40/200/53 124/201/9 125/202/16
f 5/183/43 31/185/45 33/178/38 12/177/37
f 7/153/20 36/155/22 38/181/41 13/180/40
f 15/165/29 30/167/31 32/184/44 5/183/43
f 11/150/17 47/152/19 46/187/47 10/186/46
f 8/203/49 18/196/52 77/204/54 76/205/55
f 6/162/28 130/164/1 132/206/1 140/207/1 144/208/56 66/209/57
f 54/210/58 14/168/32 15/165/29 56/211/59
f 68/212/60 16/159/25 57/213/61
f 62/214/62 7/153/20 64/215/63
f 77/204/54 18/196/52 79/216/54
f 60/217/64 12/198/37 63/218/65
f 59/219/66 5/183/43 61/220/67
f 52/193/18 8/192/49 49/221/51
f 58/222/68 15/165/29 5/183/43 59/219/66
f 80/223/69 4/224/6 17/225/6 169/226/6 78/227/70 170/228/71
f 57/213/61 16/159/25 14/168/32 55/229/72
f 74/230/73 11/150/17 73/231/74
f 65/232/75 13/180/40 67/233/76
f 78/227/70 169/226/6 17/225/6 119/234/6 118/235/6 8/189/49 76/236/55
f 69/237/77 9/156/3 16/159/25 68/212/60
f 67/233/76 13/180/40 125/202/16 126/238/9 136/239/8 137/240/78
f 71/241/79 10/186/46 9/156/3 70/242/80
f 75/243/54 18/196/52 11/150/17 74/230/73
f 79/216/54 18/196/52 75/243/54
f 55/229/72 14/168/32 54/210/58
f 73/231/74 11/150/17 10/186/46 72/244/81
f 56/211/59 15/165/29 58/222/68
f 63/218/65 12/198/37 7/153/20 62/214/62
f 61/220/67 5/183/43 12/177/37 60/245/64
f 70/242/80 9/156/3 69/237/77
f 72/244/81 10/186/46 71/241/79
f 64/215/63 7/153/20 13/180/40 65/232/75
f 87/246/14 88/247/9 121/248/8 124/201/9 40/200/53
f 53/249/82 168/250/50 50/190/50 8/189/49 118/235/6 117/251/6 3/252/6
f 117/251/6 118/235/6 17/225/6
f 117/251/6 17/225/6 3/252/6
f 17/253/6 4/254/6 120/255/6
f 93/256/10 1/138/13 86/257/15 92/258/35
f 90/259/83 89/260/1 122/261/1 127/163/1 6/162/28 39/262/36
f 118/235/6 119/234/6 17/225/6
f 139/135/10 2/134/7 131/142/10
f 129/263/10 128/172/10 6/171/28
f 120/255/6 4/254/6 133/264/6
f 3/265/6 82/266/6 53/267/82
f 143/268/11 139/269/10 131/270/10 129/263/10 6/171/28 66/271/57
f 82/266/6 3/265/6 103/272/6
f 136/132/8 2/131/7 138/273/12 137/274/78
f 123/139/10 1/138/13 93/256/10
l 53 83
l 3 83
l 4 119
l 17 103
l 4 134
l 80 133
l 80 134
