# Blender v2.82 (sub 7) OBJ File: 'glasspanel.blend'
# www.blender.org
mtllib glasspanel.mtl
o Cube.001
v 0.953281 3.172943 -0.115729
v 0.953281 -0.067651 -0.115729
v 0.953281 3.172943 0.115729
v 0.953281 -0.067651 0.115729
v -0.761499 3.172943 -0.115729
v -0.761499 -0.067651 -0.115729
v -0.761499 3.172943 0.115729
v -0.761499 -0.067651 0.115729
v 1.095891 3.355746 -0.109917
v 1.095891 -0.250454 -0.109917
v 1.095891 3.355746 0.109917
v 1.095891 -0.250454 0.109917
v -0.904109 3.355746 -0.109917
v -0.904109 -0.250454 -0.109917
v -0.904109 3.355746 0.109917
v -0.904109 -0.250454 0.109917
v -0.761499 -0.067651 0.109917
v -0.761499 0.006686 0.109917
v -0.761499 -0.067651 -0.109917
v -0.761499 3.172943 0.109917
v -0.761499 3.172943 -0.109917
v -0.761499 3.098606 -0.109917
v 0.953281 3.172943 0.109917
v 0.953281 3.172943 -0.109917
v 0.953281 -0.067651 0.109917
v 0.953281 -0.067651 -0.109917
vt 0.625000 0.500000
vt 0.875000 0.500000
vt 0.875000 0.750000
vt 0.625000 0.750000
vt 0.375000 0.750000
vt 0.625000 1.000000
vt 0.375000 1.000000
vt 0.375000 0.000000
vt 0.625000 0.000000
vt 0.625000 0.250000
vt 0.375000 0.250000
vt 0.125000 0.500000
vt 0.375000 0.500000
vt 0.125000 0.750000
vt 0.625000 0.500000
vt 0.875000 0.500000
vt 0.875000 0.750000
vt 0.625000 0.750000
vt 0.375000 0.750000
vt 0.612327 0.767826
vt 0.387673 0.767826
vt 0.387673 0.982174
vt 0.392826 0.982174
vt 0.375000 1.000000
vt 0.375000 0.000000
vt 0.625000 0.000000
vt 0.625000 0.250000
vt 0.375000 0.250000
vt 0.125000 0.500000
vt 0.375000 0.500000
vt 0.125000 0.750000
vt 0.607174 0.267826
vt 0.387673 0.267826
vt 0.387673 0.482174
vt 0.375000 0.067919
vt 0.375000 0.182081
vt 0.619265 0.182081
vt 0.625000 0.182081
vt 0.625000 0.067919
vt 0.380735 0.067919
vt 0.612327 0.482174
vt 0.612327 0.267826
vt 0.625000 0.567919
vt 0.625000 0.682081
vt 0.875000 0.682081
vt 0.875000 0.567919
vt 0.612327 0.982174
vt 0.625000 1.000000
vt 0.375000 0.567919
vt 0.375000 0.682081
vt 0.125000 0.567919
vt 0.125000 0.682081
vn 0.0000 1.0000 0.0000
vn 0.0000 0.0000 1.0000
vn -1.0000 0.0000 0.0000
vn 0.0000 -1.0000 0.0000
vn 1.0000 0.0000 0.0000
vn 0.0000 0.0000 -1.0000
usemtl Material.001
s off
f 1/1/1 5/2/1 7/3/1 3/4/1
f 4/5/2 3/4/2 7/6/2 8/7/2
f 8/8/3 7/9/3 5/10/3 6/11/3
f 6/12/4 2/13/4 4/5/4 8/14/4
f 2/13/5 1/1/5 3/4/5 4/5/5
f 6/11/6 5/10/6 1/1/6 2/13/6
usemtl Material
f 9/15/1 13/16/1 15/17/1 11/18/1
f 12/19/2 11/18/2 23/20/2 25/21/2 17/22/2 18/23/2 16/24/2
f 16/25/3 15/26/3 13/27/3 14/28/3
f 14/29/4 10/30/4 12/19/4 16/31/4
f 10/30/5 9/15/5 11/18/5 12/19/5
f 14/28/6 13/27/6 22/32/6 19/33/6 26/34/6 10/30/6
f 17/35/5 19/36/5 22/37/5 21/38/5 20/39/5 18/40/5
f 10/30/6 26/34/6 24/41/6 21/42/6 22/32/6 13/27/6 9/15/6
f 24/43/4 23/44/4 20/45/4 21/46/4
f 16/24/2 18/23/2 20/47/2 23/20/2 11/18/2 15/48/2
f 26/49/3 25/50/3 23/44/3 24/43/3
f 19/51/1 17/52/1 25/50/1 26/49/1
